<svg version="1.1" xmlns="http://www.w3.org/2000/svg" xmlns:xlink="http://www.w3.org/1999/xlink" x="0px" y="0px" width="861.5" height="926.5" viewBox="0 0" xml:space="preserve"><path fill="#FBB036" d="M349 0.2V0h1 1l1.2 3.5c0.9 2.3 1.5 3.8 1.8 4.5l0.5 1 2.7-1.8c1.9-1.1 3.1-1.7 3.8-1.7h1l0.2 0.3 0.3 0.2 0.5 1 0.5 1v1.5V11l-0.3 0.2 -0.2 0.3 -0.2 0.3c-0.2 0.1-1 0.9-2.3 2.2s-2 3.3-2 6 0.3 5.3 1 8 -0.7 5.5-4 8.5l-5 4.5 -0.3 0.2 -0.2 0.3 -0.2 0.3 -0.3 0.2 -0.3 0.2 -0.2 0.3 -0.2 0.3 -0.3 0.2v1 1l0.3 0.2 0.2 0.3 0.2 0.3 0.3 0.2 0.3 0.2 0.2 0.3h3c2 0 3.5-0.2 4.5-0.7 1-0.5 2.3 0.8 4 4 1.7 3.1 4 5.4 7 6.7s8 2.3 15 3 12.4 1.6 16.3 2.7c3.8 1.2 6.8 4 9 8.3 2.1 4.3 6.2 7.1 12.2 8.3 6 1.1 11.2 3.2 15.5 6.2s8 4.7 11 5 4.8 0.5 5.5 0.5h1l0.2-0.3 0.3-0.2 0.3-0.2 0.2-0.3 0.2-0.3 0.3-0.2 0.3-0.2 0.2-0.3 2.2-2.3c1.5-1.5 2.3-4.7 2.3-9.7s2.8-9.6 8.3-13.7c5.5-4.2 10.5-6 15.2-5.3s8.5 2.2 11.5 4.5 7.6 3.9 13.7 4.8c6.2 0.8 9.9 1.9 11 3.4 1.2 1.5 7.5 3 18.8 4.3s18.8 2.5 22.5 3.5 7.7 0.3 12-2 7-3.6 8-3.8L583 72l1.2 3.5c0.9 2.3 1.5 4 1.8 5l0.5 1.5 0.3 1 0.2 1h1 1l0.2-1 0.3-1 2.7-4.8c1.9-3.1 2.9-4.8 3-5 0.2-0.1 0.4-0.3 0.6-0.4l0.2-0.3 0.2-0.3 0.3-0.2 1.3 2.2c0.8 1.5 5.5 2.3 14.2 2.3s14.3 1.8 16.8 5.3c2.5 3.5 3.9 8.5 4.2 15.2s0.3 11 0 13l-0.5 3 -0.3 2.5L632 117l-1-0.2 -1-0.3 -1-0.5 -1-0.5 -0.2-0.3 -0.3-0.2 -0.3-0.2 -0.2-0.3 -0.2-0.3 -0.3-0.2 -0.3-0.2 -0.2-0.3 -0.2-0.3 -0.3-0.2 -0.3-0.2 -0.2-0.3 -1-0.5c-0.7-0.3-1.7-1.1-3.2-2.2 -1.5-1.2-2.5-3.1-3-5.8 -0.5-2.7-1.5-4.3-2.8-4.8l-2-0.7 -0.2-0.3 -0.3-0.2 -0.3-0.2 -0.2-0.3 -0.2-0.3 -0.3-0.2 -0.3-0.2 -0.2-0.3 -0.2-0.3 -0.3-0.2 -0.3-0.2 -0.2-0.3 -0.2-0.3 -0.3-0.2 -0.5-1 -0.5-1 -0.3-0.2 -0.2-0.3 -0.2-0.3 -0.3-0.2 -0.3 0.2 -0.2 0.3 -0.2 0.3 -0.3 0.2v1.5V96l0.5 1 0.5 1 0.3 0.2 0.2 0.3 0.2 0.3 0.3 0.2 0.3 0.2 0.2 0.3 0.2 0.3 0.3 0.2 7 9.5c4.7 6.3 7.6 11.8 8.7 16.5 1.2 4.7 2.9 7.5 5 8.5 2.2 1 6.6 6.2 13.3 15.5s10.3 16.2 11 20.5 3.7 8.7 9 13 8.8 8.5 10.5 12.5 2.8 9.7 3.5 17 1.6 12.2 2.7 14.5c1.2 2.3 4.9 5.7 11 10 6.2 4.3 10.4 10.2 12.6 17.7 2.1 7.5 6.4 13.8 12.7 18.8s11.1 8.4 14.3 10.2c3.1 1.9 7.9 5.5 14.4 11 6.5 5.5 11.1 9.1 13.8 10.6 2.7 1.5 3.9 4 3.8 7.7 -0.2 3.7-1 6-2.3 7s-2.1 2.5-2.3 4.5l-0.2 3 5 0.8c3.3 0.5 6 1.7 8 3.7s5.8 3 11.5 3 8.8-0.3 9.5-1 3.3-1.3 8-2 7.3-1.6 8-2.7c0.7-1.2 1.3-1.8 2-1.8s1-0.3 1-1 2.2-0.8 6.5-0.5 6.8-0.7 7.3-3c0.5-2.3 3.6-3.6 9.4-3.7 5.9-0.2 10.3-1.5 13.3-3.8s5.3-3.5 7-3.5h2.5l1.5 0.5 1.5 0.5 0.2 0.3 0.3 0.2 0.5 4.5c0.3 3 0.6 4.5 0.8 4.5h0.2v6 6l-10.8 27c-7.1 18-14.6 33.9-22.4 47.8 -7.9 13.8-16.5 25.2-25.8 34.2s-17.1 15.9-23.2 20.8c-6.2 4.8-14.9 14.1-26 28 -11.2 13.8-18 21.3-20.3 22.4 -2.3 1.2-3.8 3.8-4.3 7.8 -0.5 4-1.9 7.7-4.4 11.2 -2.5 3.5-4.6 5.2-6.3 5 -1.7-0.1-2.8 1.5-3.3 4.8 -0.5 3.3-0.7 6.7-0.7 10s0.7 7.3 2 12 2 10.2 2 16.5 0.9 12.2 2.7 17.7c1.9 5.5 4.1 9.5 6.6 12 2.5 2.5 3.7 7.1 3.7 13.8s0 17.8 0 33.5 -2.2 25.9-6.7 30.7c-4.5 4.9-13.1 10.5-25.6 17 -12.5 6.5-21.3 12.1-26.4 16.6 -5.2 4.5-8.8 7.1-10.8 8 -2 0.8-3.2 2.1-3.5 4 -0.3 1.8-1.5 2.6-3.5 2.4 -2-0.1-2.9 2.3-2.8 7.3 0.2 5 1 9.2 2.3 12.5s2.3 8.2 3 14.5 0.4 12.1-0.7 17.3c-1.2 5.1-7.2 10.1-18 15 -10.9 4.8-16.6 7.7-17.3 8.7s-1.2 5.2-1.5 12.5 -1.3 12.2-3 14.5 -3.3 5.3-4.8 9c-1.5 3.7-3.7 6.2-6.7 7.7 -3 1.5-7.1 5.9-12.3 13 -5.1 7.2-10.1 13.4-15 18.6 -4.8 5.1-10.4 10-16.7 14.7s-10.8 7.7-13.5 9 -7.3 2.5-14 3.5 -10.5 2-11.5 3 -2.7 1.2-5 0.5 -7.2-0.8-14.5-0.5 -11.7 1-13 2 -5.2 1.7-11.5 2 -9.8 0.7-10.5 1l-1 0.5 -1 0.5c-0.7 0.3-1.8 0.6-3.5 0.8L460 926l-0.2-0.5 -0.3-0.5 -0.3-0.2 -0.2-0.3 -1.5-0.5 -1.5-0.5 -0.2-0.3 -0.3-0.2 -0.3-0.2 -0.2-0.3 -0.2-0.3 -0.3-0.2 -0.3-0.2c-0.1-0.2-2-2.1-5.7-5.8s-6.1-6.9-7.3-9.8c-1.1-2.8-0.8-4.4 1-4.7 1.9-0.3 3.2-1.2 4-2.5l1.3-2 0.3-0.2 0.2-0.3 -0.2-0.3c-0.2-0.1-2.6-4-7.3-11.7s-7.3-13.3-8-17 -2.8-7.8-6.3-12.3c-3.5-4.5-7.6-10.3-12.4-17.4 -4.9-7.2-8.1-15.3-9.8-24.3s-2.8-17.5-3.5-25.5 -4.5-17.7-11.5-29 -12.8-21.5-17.5-30.5 -7.2-18.3-7.5-28 -0.2-15.2 0.5-16.5 2-6 4-14 5.5-14.8 10.5-20.5 7.7-10.8 8-15.5 -0.5-9.2-2.5-13.5 -3.2-10.3-3.5-18 -3-17.2-8-28.5 -8.5-19.3-10.5-24 -6.5-10.8-13.5-18.5 -12.8-14.8-17.5-21.5 -7.2-11.3-7.5-14 -0.1-4.3 0.8-4.8c0.8-0.5 1.6-1.9 2.4-4.4 0.9-2.5 1.6-6 2.3-10.3s0.7-6.8 0-7.5 -0.2-3.2 1.5-7.5 2.7-9.2 3-14.5 0.2-8.5-0.5-9.5 -0.7-2.2 0-3.5l1-2v-1 -1l-0.3-0.2 -0.2-0.3h-1c-0.7 0-1.8 0.3-3.5 1s-4-0.7-7-4 -4.8-4.8-5.5-4.5 -2.7 0.8-6 1.5 -8.5 1.2-15.5 1.5 -11 0-12-1 -2.8-3.7-5.3-8.2c-2.5-4.5-4.8-8.2-7-11 -2.1-2.9-9.7-4.3-22.7-4.3s-20.8 0.8-23.5 2.5 -6 3-10 4 -9 3-15 6 -10.3 4.8-13 5.5 -5.7 0.3-9-1 -9.8-2.2-19.5-2.5 -18.2 0.5-25.5 2.5 -13.5 3.2-18.5 3.5c-5 0.3-10.3-1-16-4s-10.2-6.4-13.7-10.2c-3.5-3.9-6.5-6.7-9-8.6 -2.5-1.8-8.6-7-18.3-15.7s-14.8-15.3-15.5-20 -1.4-8.2-2.2-10.7c-0.9-2.5-3.5-5.6-7.8-9.3s-6.7-6.3-7-8 -3.8-6-10.5-13S4.3 309 4 305s-0.2-6.5 0.5-7.5 1.3-2.5 2-4.5 -0.1-4.8-2.3-8.5L1 279l0.2-1.5 0.3-1.5 0.3-0.2 0.2-0.3 0.2-0.3 0.3-0.2 0.5-1 0.5-1 0.3-0.2 0.2-0.3 0.2-0.3 0.3-0.2 0.5-1c0.3-0.7 1-1.8 2-3.5s3.2-7.7 6.5-18 5-18.7 5-25 0.3-10 1-11 1-3.2 1-6.5 -0.5-5.5-1.5-6.5 -1.5-4.7-1.5-11 1.2-10.3 3.7-12c2.5-1.7 5.5-6 8.8-13S36.8 153 40.5 151s7.5-6.7 11.5-14.2c4-7.5 7.3-11.6 10-12.3s5.9-4.1 9.8-10.3c3.8-6.1 8.1-9.5 13-10 4.8-0.5 9-1.5 12.7-3.2s8.2-5.1 13.7-10.2c5.5-5.2 8.8-10.6 9.8-16.3s2.4-9.8 4.2-12.3c1.9-2.5 3.5-5.5 5-9 1.5-3.5 7.1-7.6 16.6-12.4 9.5-4.9 17-10.8 22.7-17.8l8.5-10.5 0.2-0.3 0.3-0.2 0.3-0.2 0.2-0.3 0.2-0.3 0.3-0.2 0.3 0.2 0.2 0.3 0.2 0.3 0.3 0.2 4.3 4.8c2.8 3.1 7.7 4.9 14.7 5.2s11.8 1 14.5 2 7.2-0.3 13.5-4 10.5-5.7 12.5-6 4.3-1.5 7-3.5S258.2 7 272.5 6s21.8-0.9 22.5 0.2c0.7 1.2 4 1.1 10-0.4 6-1.5 9.2-1.9 9.5-1 0.3 0.8 1.8 0.8 4.5 0 2.7-0.9 4.8-1 6.5-0.3s4.5 0.7 8.5 0S341.5 3 344.5 2 349 0.4 349 0.2zM853.8 683.5l0.2 2.5 -1 0.2c-0.7 0.2-1.7 0.8-3 1.8s-2.4 0.4-3.2-1.8l-1.3-3.2 -0.3 0.2 -0.2 0.3 -1 0.3 -1 0.2 -0.8 7c-0.5 4.7-1.2 7.8-2.2 9.5s-1.8 5.7-2.5 12 -2 11-4 14 -7.7 15.7-17 38 -14.7 34.8-16 37.5 -2.9 4.7-4.7 6.2c-1.9 1.5-5.1 3-9.8 4.3s-8.3 2.3-11 3 -6 0.1-10-1.7c-4-1.9-6.9-6-8.8-12.3 -1.8-6.3-2.5-13.5-2.2-21.5s3.3-16 9-24 8.2-14.2 7.5-18.5 -1-10.3-1-18 0.8-12.7 2.5-15 2.7-4.6 3.2-6.7c0.5-2.2 2.7-3.7 6.6-4.6 3.8-0.8 5.8-1.5 6-2.2 0.1-0.7 3.1-1 9-1 5.8 0 9.6-1.6 11.4-4.8 1.9-3.1 3.9-5.1 6-6 2.2-0.8 4.3-3.5 6.3-8.2s3.1-8 3.3-10c0.1-2 1.5-3.5 4-4.5 2.5-1 4.4-2 5.7-3s2.4-3.2 3.3-6.7c0.8-3.5 1.5-5.5 2.2-5.8s2.4 1.1 5.2 4.2c2.9 3.2 5.1 10 6.8 20.3S853.6 681.8 853.8 683.5z"/></svg>